<?xml version="1.0" standalone="no"?>
<!DOCTYPE svg PUBLIC "-//W3C//DTD SVG 20010904//EN"
 "http://www.w3.org/TR/2001/REC-SVG-20010904/DTD/svg10.dtd">
<svg version="1.0" xmlns="http://www.w3.org/2000/svg"
 width="2000.000000pt" height="2000.000000pt" viewBox="0 0 2000.000000 2000.000000"
 preserveAspectRatio="xMidYMid meet">

<g transform="translate(0.000000,2000.000000) scale(0.100000,-0.100000)"
fill="#000000" stroke="none">
<path d="M8486 11149 c-101 -16 -167 -49 -233 -114 -48 -48 -65 -73 -77 -115
-34 -113 -12 -234 54 -300 55 -55 118 -84 282 -131 148 -42 188 -64 188 -104
0 -54 -75 -70 -181 -39 -66 19 -198 87 -255 130 l-41 32 -66 -139 -66 -140 56
-36 c112 -71 264 -118 417 -129 171 -12 333 39 414 131 52 59 72 119 72 214 0
93 -27 158 -88 213 -58 52 -99 71 -261 119 -151 45 -191 67 -191 103 0 76 124
59 326 -45 l95 -49 35 78 c76 164 94 205 92 207 -140 93 -394 144 -572 114z"/>
<path d="M9534 11146 c-188 -43 -339 -192 -389 -382 -20 -77 -19 -239 1 -318
36 -139 138 -266 264 -330 89 -44 158 -58 270 -54 l89 3 21 -37 21 -38 206 0
205 0 -14 23 c-126 193 -141 220 -130 236 79 112 105 188 110 332 6 182 -32
298 -134 409 -103 111 -208 159 -364 166 -60 2 -117 -1 -156 -10z m211 -305
c46 -20 90 -69 113 -121 21 -47 20 -183 -1 -232 -50 -118 -201 -171 -305 -108
-98 60 -138 223 -86 349 19 45 69 99 109 117 43 19 123 17 170 -5z"/>
<path d="M16135 11143 c-98 -20 -189 -68 -262 -136 -114 -107 -161 -209 -170
-367 -9 -169 39 -302 152 -415 111 -111 250 -165 425 -165 116 0 202 20 289
65 75 40 173 121 169 140 -2 7 -59 60 -127 118 l-125 106 -27 -38 c-41 -55
-113 -91 -183 -91 -70 0 -121 24 -170 82 -45 52 -59 102 -54 189 7 130 101
224 222 224 74 -1 115 -20 173 -82 l42 -44 125 106 c69 59 126 111 126 115 0
4 -25 30 -55 59 -131 124 -349 177 -550 134z"/>
<path d="M17245 11153 c-230 -30 -425 -205 -470 -420 -65 -304 108 -581 410
-658 76 -19 231 -19 314 0 93 22 183 70 253 134 l61 57 -133 111 -132 112 -32
-41 c-81 -106 -232 -120 -329 -29 -97 89 -102 270 -10 365 53 54 89 70 158 70
73 0 128 -26 178 -85 l36 -41 130 110 130 110 -38 40 c-47 49 -116 96 -175
122 -94 40 -240 58 -351 43z"/>
<path d="M18234 11146 c-188 -43 -339 -192 -389 -382 -20 -77 -19 -239 1 -318
46 -178 191 -324 369 -371 69 -18 202 -20 277 -4 181 38 334 188 382 375 9 36
16 103 16 161 0 165 -41 280 -136 383 -103 111 -208 159 -364 166 -60 2 -117
-1 -156 -10z m211 -305 c46 -20 90 -69 113 -121 21 -48 20 -183 -2 -233 -34
-77 -123 -137 -203 -137 -76 0 -161 62 -190 138 -22 56 -24 169 -4 226 16 47
75 114 116 132 43 19 123 17 170 -5z"/>
<path d="M1600 10610 l0 -520 170 0 170 0 0 135 0 135 85 0 c158 0 262 38 345
126 78 82 94 127 95 259 0 99 -3 116 -27 167 -30 65 -98 137 -157 167 -86 44
-140 51 -418 51 l-263 0 0 -520z m503 240 c66 -52 55 -185 -19 -218 -14 -7
-52 -12 -84 -12 l-60 0 0 125 0 125 69 0 c53 0 74 -4 94 -20z"/>
<path d="M2595 10619 c-110 -282 -202 -516 -203 -521 -2 -5 74 -7 173 -6 l177
3 22 70 22 70 169 0 169 0 21 -70 21 -70 183 -3 c171 -2 182 -1 177 15 -3 10
-89 243 -190 518 l-184 500 -178 3 -179 2 -200 -511z m414 13 l39 -132 -89 0
c-66 0 -87 3 -84 13 2 6 21 64 41 127 38 120 43 134 50 127 2 -2 21 -63 43
-135z"/>
<path d="M3530 10792 c0 -271 3 -349 15 -397 58 -221 267 -350 537 -331 201
14 337 98 412 255 l31 66 3 373 3 372 -171 0 -170 0 0 -331 c0 -360 -2 -376
-58 -419 -87 -69 -221 -24 -251 85 -7 25 -11 157 -11 353 l0 312 -170 0 -170
0 0 -338z"/>
<path d="M4660 10610 l0 -520 390 0 390 0 0 140 0 140 -220 0 -220 0 0 380 0
380 -170 0 -170 0 0 -520z"/>
<path d="M6010 11123 c0 -5 77 -239 171 -520 l171 -513 178 0 178 0 171 513
c94 281 171 515 171 520 0 4 -78 6 -172 5 l-173 -3 -79 -365 c-43 -201 -80
-367 -82 -369 -2 -2 -6 -2 -8 0 -2 2 -36 153 -76 334 -39 182 -76 347 -81 368
l-10 37 -179 0 c-99 0 -180 -3 -180 -7z"/>
<path d="M7330 11106 c-5 -13 -93 -239 -196 -502 -103 -264 -189 -487 -192
-496 -4 -17 9 -18 170 -18 l174 0 24 75 24 75 167 0 167 0 23 -75 22 -75 182
0 183 0 -89 243 c-49 133 -135 367 -191 520 l-102 277 -178 0 -178 0 -10 -24z
m219 -461 c18 -60 35 -118 37 -127 5 -16 -3 -18 -80 -18 -47 0 -86 3 -86 6 0
24 84 264 90 258 4 -5 22 -58 39 -119z"/>
<path d="M10280 10828 c0 -167 5 -336 10 -377 17 -132 77 -230 182 -301 92
-61 179 -85 318 -84 177 0 285 40 381 141 56 59 94 133 109 213 5 29 10 201
10 381 l0 329 -170 0 -170 0 0 -312 c0 -194 -4 -328 -11 -353 -38 -141 -216
-162 -288 -34 -20 35 -21 52 -21 368 l0 331 -175 0 -175 0 0 -302z"/>
<path d="M11420 10610 l0 -520 420 0 420 0 0 130 0 130 -250 0 -250 0 0 65 0
65 225 0 225 0 0 130 0 130 -225 0 -225 0 0 65 0 65 250 0 250 0 0 130 0 130
-420 0 -420 0 0 -520z"/>
<path d="M12380 11000 l0 -130 185 0 c102 0 185 -3 185 -6 0 -4 -92 -131 -205
-283 l-205 -275 0 -108 0 -108 410 0 410 0 0 130 0 130 -216 2 -216 3 216 283
216 283 0 105 0 104 -390 0 -390 0 0 -130z"/>
<path d="M13760 10995 l0 -135 150 0 150 0 0 -385 0 -385 170 0 170 0 0 385 0
385 150 0 150 0 0 135 0 135 -470 0 -470 0 0 -135z"/>
<path d="M14780 10610 l0 -520 420 0 420 0 0 130 0 130 -250 0 -250 0 0 65 0
65 225 0 225 0 0 130 0 130 -225 0 -225 0 0 65 0 65 250 0 250 0 0 130 0 130
-420 0 -420 0 0 -520z"/>
</g>
</svg>
